<svg xmlns="http://www.w3.org/2000/svg" viewBox="0 0 680 480" fill="none">
  <style>
    text { font-family: -apple-system, BlinkMacSystemFont, 'Segoe UI', sans-serif; }
  </style>

  <rect width="680" height="480" rx="8" fill="#fafaf9" stroke="#e7e5e4" stroke-width="1"/>

  <text x="340" y="36" text-anchor="middle" font-size="13" font-weight="600" fill="#1c1917" letter-spacing="0.08em">HIVE</text>

  <rect x="40" y="56" width="600" height="400" rx="12" fill="#ffffff" stroke="#e7e5e4" stroke-width="1"/>

  <rect x="40" y="56" width="220" height="400" rx="12" fill="#fafaf9" stroke="#e7e5e4" stroke-width="1"/>
  <rect x="260" y="56" width="1" height="400" fill="#e7e5e4"/>

  <text x="60" y="84" font-size="14" font-weight="600" fill="#1c1917">All Agents</text>
  <text x="60" y="100" font-size="10" fill="#a8a29e">7 online, 1 offline slot</text>

  <rect x="50" y="114" width="200" height="40" rx="6" fill="#ffffff" stroke="#e7e5e4" stroke-width="1"/>
  <circle cx="68" cy="134" r="6" fill="#22c55e"/>
  <text x="82" y="129" font-size="11" font-weight="500" fill="#1c1917">Q1 Research</text>
  <text x="82" y="143" font-size="10" fill="#a8a29e">Sourcing references across providers</text>

  <rect x="50" y="162" width="200" height="40" rx="6" fill="#ffffff" stroke="#e7e5e4" stroke-width="1"/>
  <circle cx="68" cy="182" r="6" fill="#22c55e"/>
  <text x="82" y="177" font-size="11" font-weight="500" fill="#1c1917">Q2 Writer</text>
  <text x="82" y="191" font-size="10" fill="#a8a29e">Drafting the next section</text>

  <rect x="50" y="210" width="200" height="40" rx="6" fill="#fffbeb" stroke="#fcd34d" stroke-width="1"/>
  <circle cx="68" cy="230" r="6" fill="#eab308"/>
  <circle cx="68" cy="230" r="9" fill="none" stroke="#eab308" stroke-width="1" opacity="0.35"/>
  <text x="82" y="225" font-size="11" font-weight="500" fill="#1c1917">Q3 Design</text>
  <text x="82" y="239" font-size="10" fill="#a16207">Needs direction on a diagram detail</text>

  <rect x="50" y="258" width="200" height="40" rx="6" fill="#fef2f2" stroke="#fca5a5" stroke-width="1"/>
  <circle cx="68" cy="278" r="6" fill="#ef4444"/>
  <text x="82" y="273" font-size="11" font-weight="500" fill="#1c1917">Q4 Builder</text>
  <text x="82" y="287" font-size="10" fill="#ef4444">Finished routing changes, waiting</text>

  <rect x="50" y="306" width="200" height="40" rx="6" fill="#ffffff" stroke="#e7e5e4" stroke-width="1"/>
  <circle cx="68" cy="326" r="6" fill="#a8a29e"/>
  <text x="82" y="321" font-size="11" font-weight="500" fill="#1c1917">Q5 QA</text>
  <text x="82" y="335" font-size="10" fill="#a8a29e">Queued behind the latest build</text>

  <rect x="50" y="354" width="200" height="40" rx="6" fill="#ffffff" stroke="#e7e5e4" stroke-width="1"/>
  <circle cx="68" cy="374" r="6" fill="#22c55e"/>
  <text x="82" y="369" font-size="11" font-weight="500" fill="#1c1917">Q6 Ops</text>
  <text x="82" y="383" font-size="10" fill="#a8a29e">Syncing artifacts and deploy notes</text>

  <rect x="50" y="402" width="200" height="40" rx="6" fill="none" stroke="#d6d3d1" stroke-width="1" stroke-dasharray="4 4"/>
  <circle cx="68" cy="422" r="6" fill="#d6d3d1"/>
  <text x="82" y="417" font-size="11" font-weight="500" fill="#78716c">Q8 Offline</text>
  <text x="82" y="431" font-size="10" fill="#a8a29e">Ready to spawn into the next slot</text>

  <text x="280" y="84" font-size="12" font-weight="500" fill="#1c1917">Dashboard layouts</text>
  <text x="546" y="84" font-size="10" fill="#a8a29e">2x2 to 4x2</text>
  <circle cx="596" cy="80" r="3" fill="#22c55e"/>

  <rect x="282" y="106" width="338" height="92" rx="12" fill="#ffffff" stroke="#e7e5e4" stroke-width="1"/>
  <rect x="300" y="124" width="88" height="20" rx="10" fill="#f5f5f4" stroke="#e7e5e4" stroke-width="1"/>
  <text x="344" y="137" text-anchor="middle" font-size="9" font-weight="600" fill="#44403c">Up to 4</text>
  <text x="300" y="163" font-size="11" font-weight="600" fill="#1c1917">2x2 grid</text>
  <text x="300" y="179" font-size="9" fill="#78716c">Compact view for smaller runs.</text>
  <rect x="496" y="122" width="106" height="56" rx="12" fill="#18181b" stroke="#44403c" stroke-width="1"/>
  <rect x="506" y="132" width="40" height="16" rx="5" fill="#dcfce7" stroke="#22c55e" stroke-width="1"/>
  <text x="526" y="143" text-anchor="middle" font-size="6.5" font-weight="700" fill="#166534">Q1</text>
  <rect x="552" y="132" width="40" height="16" rx="5" fill="#dcfce7" stroke="#22c55e" stroke-width="1"/>
  <text x="572" y="143" text-anchor="middle" font-size="6.5" font-weight="700" fill="#166534">Q2</text>
  <rect x="506" y="154" width="40" height="16" rx="5" fill="#fef3c7" stroke="#eab308" stroke-width="1"/>
  <text x="526" y="165" text-anchor="middle" font-size="6.5" font-weight="700" fill="#92400e">Q3</text>
  <rect x="552" y="154" width="40" height="16" rx="5" fill="#fef2f2" stroke="#ef4444" stroke-width="1"/>
  <text x="572" y="165" text-anchor="middle" font-size="6.5" font-weight="700" fill="#991b1b">Q4</text>

  <rect x="282" y="214" width="338" height="92" rx="12" fill="#ffffff" stroke="#e7e5e4" stroke-width="1"/>
  <rect x="300" y="232" width="88" height="20" rx="10" fill="#f5f5f4" stroke="#e7e5e4" stroke-width="1"/>
  <text x="344" y="245" text-anchor="middle" font-size="9" font-weight="600" fill="#44403c">5 or 6</text>
  <text x="300" y="271" font-size="11" font-weight="600" fill="#1c1917">3x2 grid</text>
  <text x="300" y="287" font-size="9" fill="#78716c">Adds a third column without breaking the map.</text>
  <rect x="482" y="230" width="120" height="56" rx="12" fill="#18181b" stroke="#44403c" stroke-width="1"/>
  <rect x="492" y="240" width="32" height="16" rx="5" fill="#dcfce7" stroke="#22c55e" stroke-width="1"/>
  <text x="508" y="251" text-anchor="middle" font-size="6.5" font-weight="700" fill="#166534">Q1</text>
  <rect x="528" y="240" width="32" height="16" rx="5" fill="#dcfce7" stroke="#22c55e" stroke-width="1"/>
  <text x="544" y="251" text-anchor="middle" font-size="6.5" font-weight="700" fill="#166534">Q2</text>
  <rect x="564" y="240" width="28" height="16" rx="5" fill="#fef3c7" stroke="#eab308" stroke-width="1"/>
  <text x="578" y="251" text-anchor="middle" font-size="6.5" font-weight="700" fill="#92400e">Q3</text>
  <rect x="492" y="262" width="32" height="16" rx="5" fill="#fef2f2" stroke="#ef4444" stroke-width="1"/>
  <text x="508" y="273" text-anchor="middle" font-size="6.5" font-weight="700" fill="#991b1b">Q4</text>
  <rect x="528" y="262" width="32" height="16" rx="5" fill="#e7e5e4" stroke="#a8a29e" stroke-width="1"/>
  <text x="544" y="273" text-anchor="middle" font-size="6.5" font-weight="700" fill="#57534e">Q5</text>
  <rect x="564" y="262" width="28" height="16" rx="5" fill="none" stroke="#78716c" stroke-width="1" stroke-dasharray="3 3"/>
  <text x="578" y="273" text-anchor="middle" font-size="6.5" font-weight="700" fill="#a8a29e">Q6</text>

  <rect x="282" y="322" width="338" height="92" rx="12" fill="#ffffff" stroke="#e7e5e4" stroke-width="1"/>
  <rect x="300" y="340" width="88" height="20" rx="10" fill="#f5f5f4" stroke="#e7e5e4" stroke-width="1"/>
  <text x="344" y="353" text-anchor="middle" font-size="9" font-weight="600" fill="#44403c">7 or 8</text>
  <text x="300" y="379" font-size="11" font-weight="600" fill="#1c1917">4x2 grid</text>
  <text x="300" y="395" font-size="9" fill="#78716c">The final column appears as the fleet grows.</text>
  <rect x="468" y="338" width="134" height="56" rx="12" fill="#18181b" stroke="#44403c" stroke-width="1"/>
  <rect x="476" y="348" width="27" height="16" rx="5" fill="#dcfce7" stroke="#22c55e" stroke-width="1"/>
  <text x="489.5" y="359" text-anchor="middle" font-size="6.5" font-weight="700" fill="#166534">Q1</text>
  <rect x="507" y="348" width="27" height="16" rx="5" fill="#dcfce7" stroke="#22c55e" stroke-width="1"/>
  <text x="520.5" y="359" text-anchor="middle" font-size="6.5" font-weight="700" fill="#166534">Q2</text>
  <rect x="538" y="348" width="27" height="16" rx="5" fill="#fef3c7" stroke="#eab308" stroke-width="1"/>
  <text x="551.5" y="359" text-anchor="middle" font-size="6.5" font-weight="700" fill="#92400e">Q3</text>
  <rect x="569" y="348" width="25" height="16" rx="5" fill="#fef2f2" stroke="#ef4444" stroke-width="1"/>
  <text x="581.5" y="359" text-anchor="middle" font-size="6.5" font-weight="700" fill="#991b1b">Q4</text>
  <rect x="476" y="370" width="27" height="16" rx="5" fill="#e7e5e4" stroke="#a8a29e" stroke-width="1"/>
  <text x="489.5" y="381" text-anchor="middle" font-size="6.5" font-weight="700" fill="#57534e">Q5</text>
  <rect x="507" y="370" width="27" height="16" rx="5" fill="#dcfce7" stroke="#22c55e" stroke-width="1"/>
  <text x="520.5" y="381" text-anchor="middle" font-size="6.5" font-weight="700" fill="#166534">Q6</text>
  <rect x="538" y="370" width="27" height="16" rx="5" fill="#dcfce7" stroke="#22c55e" stroke-width="1"/>
  <text x="551.5" y="381" text-anchor="middle" font-size="6.5" font-weight="700" fill="#166534">Q7</text>
  <rect x="569" y="370" width="25" height="16" rx="5" fill="none" stroke="#78716c" stroke-width="1" stroke-dasharray="3 3"/>
  <text x="581.5" y="381" text-anchor="middle" font-size="6.5" font-weight="700" fill="#a8a29e">Q8</text>

  <text x="280" y="436" font-size="9" fill="#78716c">The dashboard widens as agents join, but the top-left terminal is still the top-left tile.</text>
</svg>
